<mxfile host="app.diagrams.net" modified="2023-11-02T08:38:10.956Z" agent="Mozilla/5.0 (Windows NT 10.0; Win64; x64) AppleWebKit/537.36 (KHTML, like Gecko) Chrome/117.0.0.0 Safari/537.36 OPR/103.0.0.0" etag="-EiUIHio_pl3F8hfZQut" version="22.0.8" type="device">
  <diagram name="Page-1" id="ECKYmMbul-JISPaQjSkk">
    <mxGraphModel dx="1949" dy="561" grid="0" gridSize="10" guides="1" tooltips="1" connect="1" arrows="1" fold="1" page="1" pageScale="1" pageWidth="850" pageHeight="1100" math="0" shadow="0">
      <root>
        <mxCell id="0" />
        <mxCell id="1" parent="0" />
        <mxCell id="uGxHZB6WG5yOioScFXZL-2" value="Customer" style="swimlane;fontStyle=0;childLayout=stackLayout;horizontal=1;startSize=26;fillColor=none;horizontalStack=0;resizeParent=1;resizeParentMax=0;resizeLast=0;collapsible=1;marginBottom=0;whiteSpace=wrap;html=1;" parent="1" vertex="1">
          <mxGeometry x="146" y="369.5" width="177" height="254" as="geometry" />
        </mxCell>
        <mxCell id="uGxHZB6WG5yOioScFXZL-38" value="- balance: int&lt;br&gt;&amp;nbsp;- price: int&lt;br&gt;&lt;br&gt;+ Customer()&lt;br&gt;+ Customer(String, String)&lt;br&gt;+ Customer(String, String, int)&lt;br&gt;&lt;br&gt;+ setBalance(int)&lt;br&gt;+ getBalance(): int&lt;br&gt;+ login(): void&lt;br&gt;+ win(): void&lt;br&gt;+ shop(): void&lt;br&gt;+ checkOut(): void&lt;br&gt;+ setBalance(int)&lt;br&gt;&amp;nbsp;+ getBalance(): int" style="text;html=1;align=left;verticalAlign=middle;resizable=0;points=[];autosize=1;strokeColor=none;fillColor=none;" parent="uGxHZB6WG5yOioScFXZL-2" vertex="1">
          <mxGeometry y="26" width="177" height="228" as="geometry" />
        </mxCell>
        <mxCell id="uGxHZB6WG5yOioScFXZL-27" value="" style="edgeStyle=orthogonalEdgeStyle;rounded=0;orthogonalLoop=1;jettySize=auto;html=1;exitX=-0.003;exitY=0.46;exitDx=0;exitDy=0;exitPerimeter=0;entryX=1;entryY=0.5;entryDx=0;entryDy=0;" parent="1" source="uGxHZB6WG5yOioScFXZL-24" target="uGxHZB6WG5yOioScFXZL-43" edge="1">
          <mxGeometry relative="1" as="geometry">
            <mxPoint x="-44" y="401.99999999999955" as="sourcePoint" />
            <mxPoint x="-679" y="552.06" as="targetPoint" />
            <Array as="points">
              <mxPoint x="-480" y="502" />
              <mxPoint x="-480" y="203" />
            </Array>
          </mxGeometry>
        </mxCell>
        <mxCell id="S8vpAs7Uerd56f1Eaf7b-12" value="&lt;font style=&quot;font-size: 16px;&quot;&gt;If input ==1&lt;/font&gt;" style="edgeLabel;html=1;align=center;verticalAlign=middle;resizable=0;points=[];" vertex="1" connectable="0" parent="uGxHZB6WG5yOioScFXZL-27">
          <mxGeometry x="0.2202" relative="1" as="geometry">
            <mxPoint x="110" y="162" as="offset" />
          </mxGeometry>
        </mxCell>
        <mxCell id="uGxHZB6WG5yOioScFXZL-39" style="edgeStyle=orthogonalEdgeStyle;rounded=0;orthogonalLoop=1;jettySize=auto;html=1;" parent="1" source="uGxHZB6WG5yOioScFXZL-6" target="uGxHZB6WG5yOioScFXZL-2" edge="1">
          <mxGeometry relative="1" as="geometry" />
        </mxCell>
        <mxCell id="uGxHZB6WG5yOioScFXZL-6" value="Admin" style="swimlane;fontStyle=0;childLayout=stackLayout;horizontal=1;startSize=26;fillColor=none;horizontalStack=0;resizeParent=1;resizeParentMax=0;resizeLast=0;collapsible=1;marginBottom=0;whiteSpace=wrap;html=1;" parent="1" vertex="1">
          <mxGeometry x="-243.5" y="391" width="207" height="211" as="geometry" />
        </mxCell>
        <mxCell id="uGxHZB6WG5yOioScFXZL-24" value="- scan: Scanner&lt;br&gt;&lt;br&gt;+ Admin()&lt;br&gt;+ Admin(String, String)&lt;br&gt;&lt;br&gt;+ login(): void &lt;br&gt;+ CreateAccount(): void&lt;br&gt;+ removeAccount(): void &lt;br&gt;+ viewInventory(): void &lt;br&gt;+ addProduct(): void &lt;br&gt;+ removeProduct(): void &lt;br&gt;+ restock(): void" style="text;html=1;align=left;verticalAlign=middle;resizable=0;points=[];autosize=1;strokeColor=none;fillColor=none;" parent="uGxHZB6WG5yOioScFXZL-6" vertex="1">
          <mxGeometry y="26" width="207" height="185" as="geometry" />
        </mxCell>
        <mxCell id="uGxHZB6WG5yOioScFXZL-8" value="User" style="swimlane;fontStyle=0;childLayout=stackLayout;horizontal=1;startSize=26;fillColor=none;horizontalStack=0;resizeParent=1;resizeParentMax=0;resizeLast=0;collapsible=1;marginBottom=0;whiteSpace=wrap;html=1;" parent="1" vertex="1">
          <mxGeometry x="-251" y="89" width="222" height="202" as="geometry" />
        </mxCell>
        <mxCell id="uGxHZB6WG5yOioScFXZL-9" value="&lt;font face=&quot;SÃ¶hne Mono, Monaco, Andale Mono, Ubuntu Mono, monospace&quot;&gt;- username: String&lt;br&gt;- password: String&lt;br&gt;+ User()&lt;br&gt;+ User(String, String) &lt;br&gt;+ setPassword(String)&lt;br&gt;+ setUsername(String)&lt;br&gt;+ getPassword(): String&lt;br&gt;+ getUsername(): String&lt;br&gt;+ login(): void&lt;/font&gt;" style="text;strokeColor=none;fillColor=none;align=left;verticalAlign=top;spacingLeft=4;spacingRight=4;overflow=hidden;rotatable=0;points=[[0,0.5],[1,0.5]];portConstraint=eastwest;whiteSpace=wrap;html=1;" parent="uGxHZB6WG5yOioScFXZL-8" vertex="1">
          <mxGeometry y="26" width="222" height="176" as="geometry" />
        </mxCell>
        <mxCell id="uGxHZB6WG5yOioScFXZL-10" value="Extends" style="endArrow=block;endSize=16;endFill=0;html=1;rounded=0;" parent="1" source="uGxHZB6WG5yOioScFXZL-6" target="uGxHZB6WG5yOioScFXZL-8" edge="1">
          <mxGeometry width="160" relative="1" as="geometry">
            <mxPoint x="84" y="569" as="sourcePoint" />
            <mxPoint x="244" y="569" as="targetPoint" />
          </mxGeometry>
        </mxCell>
        <mxCell id="uGxHZB6WG5yOioScFXZL-11" value="Extends" style="endArrow=block;endSize=16;endFill=0;html=1;rounded=0;" parent="1" source="uGxHZB6WG5yOioScFXZL-2" target="uGxHZB6WG5yOioScFXZL-8" edge="1">
          <mxGeometry width="160" relative="1" as="geometry">
            <mxPoint x="130" y="319" as="sourcePoint" />
            <mxPoint x="168" y="259" as="targetPoint" />
          </mxGeometry>
        </mxCell>
        <mxCell id="uGxHZB6WG5yOioScFXZL-25" value="Product" style="swimlane;fontStyle=0;childLayout=stackLayout;horizontal=1;startSize=26;fillColor=none;horizontalStack=0;resizeParent=1;resizeParentMax=0;resizeLast=0;collapsible=1;marginBottom=0;whiteSpace=wrap;html=1;" parent="1" vertex="1">
          <mxGeometry x="-91" y="651" width="221" height="225" as="geometry" />
        </mxCell>
        <mxCell id="uGxHZB6WG5yOioScFXZL-26" value="- Name: String &lt;br&gt;- count: int &lt;br&gt;- price: int &lt;br&gt;&lt;br&gt;+ Product(String, int, int) &lt;br&gt;&lt;br&gt;+ print(): void&lt;br&gt;+ setName(String): void&lt;br&gt;+ getName(): String&lt;br&gt;+ setCount(int): void&lt;br&gt;+ getCount(): int&lt;br&gt;+ setPrice(int): void&lt;br&gt;+ getPrice(): int" style="text;html=1;align=left;verticalAlign=middle;resizable=0;points=[];autosize=1;strokeColor=none;fillColor=none;" parent="uGxHZB6WG5yOioScFXZL-25" vertex="1">
          <mxGeometry y="26" width="221" height="199" as="geometry" />
        </mxCell>
        <mxCell id="S8vpAs7Uerd56f1Eaf7b-22" style="edgeStyle=orthogonalEdgeStyle;rounded=0;orthogonalLoop=1;jettySize=auto;html=1;exitX=0.25;exitY=0;exitDx=0;exitDy=0;entryX=1;entryY=0.5;entryDx=0;entryDy=0;" edge="1" parent="1" source="uGxHZB6WG5yOioScFXZL-31" target="uGxHZB6WG5yOioScFXZL-43">
          <mxGeometry relative="1" as="geometry" />
        </mxCell>
        <mxCell id="uGxHZB6WG5yOioScFXZL-31" value="cart" style="swimlane;fontStyle=0;childLayout=stackLayout;horizontal=1;startSize=26;fillColor=none;horizontalStack=0;resizeParent=1;resizeParentMax=0;resizeLast=0;collapsible=1;marginBottom=0;whiteSpace=wrap;html=1;" parent="1" vertex="1">
          <mxGeometry x="-549" y="659" width="68" height="67" as="geometry" />
        </mxCell>
        <mxCell id="S8vpAs7Uerd56f1Eaf7b-20" value="Product&lt;br&gt;count" style="text;html=1;align=left;verticalAlign=middle;resizable=0;points=[];autosize=1;strokeColor=none;fillColor=none;" vertex="1" parent="uGxHZB6WG5yOioScFXZL-31">
          <mxGeometry y="26" width="68" height="41" as="geometry" />
        </mxCell>
        <mxCell id="uGxHZB6WG5yOioScFXZL-44" style="edgeStyle=orthogonalEdgeStyle;rounded=0;orthogonalLoop=1;jettySize=auto;html=1;" parent="1" source="uGxHZB6WG5yOioScFXZL-40" target="uGxHZB6WG5yOioScFXZL-42" edge="1">
          <mxGeometry relative="1" as="geometry" />
        </mxCell>
        <mxCell id="uGxHZB6WG5yOioScFXZL-42" value="Main" style="swimlane;fontStyle=0;childLayout=stackLayout;horizontal=1;startSize=26;fillColor=none;horizontalStack=0;resizeParent=1;resizeParentMax=0;resizeLast=0;collapsible=1;marginBottom=0;whiteSpace=wrap;html=1;" parent="1" vertex="1">
          <mxGeometry x="-830" y="126" width="224" height="128" as="geometry" />
        </mxCell>
        <mxCell id="uGxHZB6WG5yOioScFXZL-43" value="- serial: Serialization&lt;br&gt;- dict: HashMap&amp;lt;String, User&amp;gt;&amp;nbsp;&lt;br&gt;- items: HashMap&amp;lt;String, Product&amp;gt;&amp;nbsp;&lt;br&gt;- cart: HashMap&amp;lt;Product, Integer&amp;gt;&lt;br&gt;&lt;br&gt;+ main(String[]): void" style="text;strokeColor=none;fillColor=none;align=left;verticalAlign=top;spacingLeft=4;spacingRight=4;overflow=hidden;rotatable=0;points=[[0,0.5],[1,0.5]];portConstraint=eastwest;whiteSpace=wrap;html=1;" parent="uGxHZB6WG5yOioScFXZL-42" vertex="1">
          <mxGeometry y="26" width="224" height="102" as="geometry" />
        </mxCell>
        <mxCell id="uGxHZB6WG5yOioScFXZL-40" value="Serialization" style="swimlane;fontStyle=0;childLayout=stackLayout;horizontal=1;startSize=26;fillColor=none;horizontalStack=0;resizeParent=1;resizeParentMax=0;resizeLast=0;collapsible=1;marginBottom=0;whiteSpace=wrap;html=1;" parent="1" vertex="1">
          <mxGeometry x="-808" y="321" width="180" height="110" as="geometry" />
        </mxCell>
        <mxCell id="uGxHZB6WG5yOioScFXZL-41" value="+ save(Object, String): void&amp;nbsp;&lt;br&gt;+ download(String): Object" style="text;strokeColor=none;fillColor=none;align=left;verticalAlign=top;spacingLeft=4;spacingRight=4;overflow=hidden;rotatable=0;points=[[0,0.5],[1,0.5]];portConstraint=eastwest;whiteSpace=wrap;html=1;" parent="uGxHZB6WG5yOioScFXZL-40" vertex="1">
          <mxGeometry y="26" width="180" height="84" as="geometry" />
        </mxCell>
        <mxCell id="S8vpAs7Uerd56f1Eaf7b-13" value="" style="endArrow=classic;html=1;rounded=0;entryX=1;entryY=0.5;entryDx=0;entryDy=0;exitX=0.015;exitY=0.404;exitDx=0;exitDy=0;exitPerimeter=0;" edge="1" parent="1" source="uGxHZB6WG5yOioScFXZL-9" target="uGxHZB6WG5yOioScFXZL-43">
          <mxGeometry width="50" height="50" relative="1" as="geometry">
            <mxPoint x="-278" y="208" as="sourcePoint" />
            <mxPoint x="-165" y="100" as="targetPoint" />
            <Array as="points" />
          </mxGeometry>
        </mxCell>
        <mxCell id="S8vpAs7Uerd56f1Eaf7b-15" value="&lt;font style=&quot;font-size: 15px;&quot;&gt;If input == 2&lt;/font&gt;" style="edgeLabel;html=1;align=center;verticalAlign=middle;resizable=0;points=[];" vertex="1" connectable="0" parent="1">
          <mxGeometry x="-598.9972615399588" y="442.99626032588765" as="geometry">
            <mxPoint x="200" y="-248" as="offset" />
          </mxGeometry>
        </mxCell>
        <mxCell id="S8vpAs7Uerd56f1Eaf7b-17" value="" style="endArrow=classic;html=1;rounded=0;entryX=0.411;entryY=0.004;entryDx=0;entryDy=0;entryPerimeter=0;exitX=0.478;exitY=1.016;exitDx=0;exitDy=0;exitPerimeter=0;" edge="1" parent="1" source="uGxHZB6WG5yOioScFXZL-24" target="uGxHZB6WG5yOioScFXZL-25">
          <mxGeometry width="50" height="50" relative="1" as="geometry">
            <mxPoint x="-133" y="704" as="sourcePoint" />
            <mxPoint x="44" y="457" as="targetPoint" />
            <Array as="points" />
          </mxGeometry>
        </mxCell>
        <mxCell id="S8vpAs7Uerd56f1Eaf7b-18" value="" style="endArrow=classic;html=1;rounded=0;entryX=0.439;entryY=-0.024;entryDx=0;entryDy=0;entryPerimeter=0;exitX=-0.015;exitY=0.432;exitDx=0;exitDy=0;exitPerimeter=0;" edge="1" parent="1" source="uGxHZB6WG5yOioScFXZL-38" target="uGxHZB6WG5yOioScFXZL-25">
          <mxGeometry width="50" height="50" relative="1" as="geometry">
            <mxPoint x="-6" y="507" as="sourcePoint" />
            <mxPoint x="44" y="457" as="targetPoint" />
          </mxGeometry>
        </mxCell>
        <mxCell id="S8vpAs7Uerd56f1Eaf7b-24" style="edgeStyle=orthogonalEdgeStyle;rounded=0;orthogonalLoop=1;jettySize=auto;html=1;exitX=1;exitY=0.25;exitDx=0;exitDy=0;entryX=-0.024;entryY=0.263;entryDx=0;entryDy=0;entryPerimeter=0;" edge="1" parent="1" source="uGxHZB6WG5yOioScFXZL-31" target="uGxHZB6WG5yOioScFXZL-26">
          <mxGeometry relative="1" as="geometry" />
        </mxCell>
        <mxCell id="S8vpAs7Uerd56f1Eaf7b-25" value="" style="endArrow=classic;html=1;rounded=0;entryX=0.882;entryY=-0.003;entryDx=0;entryDy=0;entryPerimeter=0;exitX=0.195;exitY=0.993;exitDx=0;exitDy=0;exitPerimeter=0;" edge="1" parent="1" source="uGxHZB6WG5yOioScFXZL-38" target="S8vpAs7Uerd56f1Eaf7b-20">
          <mxGeometry width="50" height="50" relative="1" as="geometry">
            <mxPoint x="180" y="638" as="sourcePoint" />
            <mxPoint x="-226" y="610" as="targetPoint" />
            <Array as="points">
              <mxPoint x="176" y="933" />
              <mxPoint x="-313" y="930" />
              <mxPoint x="-318" y="685" />
            </Array>
          </mxGeometry>
        </mxCell>
      </root>
    </mxGraphModel>
  </diagram>
</mxfile>
